# xmcd CD database file
#
# Track frame offsets:
#	150
#	28648
#	58021
#	79820
#	115260
#	135477
#	162166
#	195621
#
# Disc length: 2816 seconds
#
# Revision: 0
# Processed by: cddbd v1.5.1PL0 Copyright (c) Steve Scherf et al.
# Submitted via: CDex 1.51
#
DISCID=630afe08
DTITLE=Brian Auger's Oblivion Express - Closer To It
DYEAR=1973
DGENRE=Jazz
TTITLE0=Whenever You're Ready
TTITLE1=Happiness Is Just Around The Bend
TTITLE2=Light On The Path
TTITLE3=Compared To What
TTITLE4=Inner City Blues
TTITLE5=Voices Of Other Times
TTITLE6=Happiness is Just Around The Bend(Alternative take)
TTITLE7=Inner City Blues(7" Version)
EXTD=YEAR: 1973
EXTT0=
EXTT1=
EXTT2=
EXTT3=
EXTT4=
EXTT5=
EXTT6=
EXTT7=
PLAYORDER=
